<mxfile host="www.draw.io" modified="2020-02-27T04:07:40.868Z" agent="Mozilla/5.0 (X11; Ubuntu; Linux x86_64; rv:73.0) Gecko/20100101 Firefox/73.0" etag="W9GcuE0yPVlwh6tP86QW" version="12.7.6" type="github">
  <diagram id="Ugx0VmlUpKDRqR6DWLST" name="Page-1">
    <mxGraphModel dx="1594" dy="872" grid="1" gridSize="10" guides="1" tooltips="1" connect="1" arrows="1" fold="1" page="1" pageScale="1" pageWidth="850" pageHeight="1100" math="0" shadow="0">
      <root>
        <mxCell id="0" />
        <mxCell id="1" parent="0" />
        <mxCell id="17chRcjesr2Qa1bXPgZT-1" value="" style="rounded=1;whiteSpace=wrap;html=1;" vertex="1" parent="1">
          <mxGeometry x="80" y="120" width="510" height="640" as="geometry" />
        </mxCell>
        <mxCell id="17chRcjesr2Qa1bXPgZT-2" value="VM1" style="rounded=0;whiteSpace=wrap;html=1;" vertex="1" parent="1">
          <mxGeometry x="150" y="130" width="120" height="60" as="geometry" />
        </mxCell>
        <mxCell id="17chRcjesr2Qa1bXPgZT-3" value="vNIC" style="rounded=0;whiteSpace=wrap;html=1;" vertex="1" parent="1">
          <mxGeometry x="150" y="190" width="120" height="20" as="geometry" />
        </mxCell>
        <mxCell id="17chRcjesr2Qa1bXPgZT-5" value="qvb" style="rounded=0;whiteSpace=wrap;html=1;" vertex="1" parent="1">
          <mxGeometry x="170" y="280" width="80" height="20" as="geometry" />
        </mxCell>
        <mxCell id="17chRcjesr2Qa1bXPgZT-6" value="qbr" style="rounded=0;whiteSpace=wrap;html=1;" vertex="1" parent="1">
          <mxGeometry x="130" y="260" width="160" height="20" as="geometry" />
        </mxCell>
        <mxCell id="17chRcjesr2Qa1bXPgZT-7" value="tap" style="rounded=0;whiteSpace=wrap;html=1;" vertex="1" parent="1">
          <mxGeometry x="170" y="240" width="80" height="20" as="geometry" />
        </mxCell>
        <mxCell id="17chRcjesr2Qa1bXPgZT-8" value="" style="rounded=1;whiteSpace=wrap;html=1;fillColor=none;" vertex="1" parent="1">
          <mxGeometry x="120" y="220" width="190" height="95" as="geometry" />
        </mxCell>
        <mxCell id="17chRcjesr2Qa1bXPgZT-9" value="linuxbridge" style="text;html=1;strokeColor=none;fillColor=none;align=center;verticalAlign=middle;whiteSpace=wrap;rounded=0;" vertex="1" parent="1">
          <mxGeometry x="205" y="220" width="100" height="20" as="geometry" />
        </mxCell>
        <mxCell id="17chRcjesr2Qa1bXPgZT-10" value="" style="endArrow=classic;startArrow=classic;html=1;entryX=0.5;entryY=0;entryDx=0;entryDy=0;exitX=0.5;exitY=1;exitDx=0;exitDy=0;" edge="1" parent="1" source="17chRcjesr2Qa1bXPgZT-3" target="17chRcjesr2Qa1bXPgZT-7">
          <mxGeometry width="50" height="50" relative="1" as="geometry">
            <mxPoint x="400" y="520" as="sourcePoint" />
            <mxPoint x="450" y="470" as="targetPoint" />
          </mxGeometry>
        </mxCell>
        <mxCell id="17chRcjesr2Qa1bXPgZT-11" value="" style="endArrow=classic;startArrow=classic;html=1;exitX=0.5;exitY=1;exitDx=0;exitDy=0;entryX=0.5;entryY=0;entryDx=0;entryDy=0;" edge="1" parent="1" source="17chRcjesr2Qa1bXPgZT-5" target="17chRcjesr2Qa1bXPgZT-12">
          <mxGeometry width="50" height="50" relative="1" as="geometry">
            <mxPoint x="400" y="520" as="sourcePoint" />
            <mxPoint x="450" y="470" as="targetPoint" />
          </mxGeometry>
        </mxCell>
        <mxCell id="17chRcjesr2Qa1bXPgZT-12" value="qvo" style="rounded=0;whiteSpace=wrap;html=1;" vertex="1" parent="1">
          <mxGeometry x="170" y="340" width="80" height="20" as="geometry" />
        </mxCell>
        <mxCell id="17chRcjesr2Qa1bXPgZT-25" value="" style="edgeStyle=orthogonalEdgeStyle;rounded=0;orthogonalLoop=1;jettySize=auto;html=1;" edge="1" parent="1" source="17chRcjesr2Qa1bXPgZT-13" target="17chRcjesr2Qa1bXPgZT-15">
          <mxGeometry relative="1" as="geometry" />
        </mxCell>
        <mxCell id="17chRcjesr2Qa1bXPgZT-13" value="&lt;font style=&quot;font-size: 17px&quot;&gt;br-int&lt;/font&gt;" style="rounded=1;whiteSpace=wrap;html=1;fillColor=none;arcSize=32;" vertex="1" parent="1">
          <mxGeometry x="140" y="360" width="360" height="130" as="geometry" />
        </mxCell>
        <mxCell id="17chRcjesr2Qa1bXPgZT-14" value="patch-tun" style="rounded=1;whiteSpace=wrap;html=1;fillColor=#ffffff;arcSize=50;" vertex="1" parent="1">
          <mxGeometry x="260" y="470" width="120" height="20" as="geometry" />
        </mxCell>
        <mxCell id="17chRcjesr2Qa1bXPgZT-15" value="&lt;font style=&quot;font-size: 18px&quot;&gt;br-tun&lt;/font&gt;" style="rounded=1;whiteSpace=wrap;html=1;fillColor=none;arcSize=32;" vertex="1" parent="1">
          <mxGeometry x="140" y="540" width="360" height="130" as="geometry" />
        </mxCell>
        <mxCell id="17chRcjesr2Qa1bXPgZT-16" value="patch-int" style="rounded=1;whiteSpace=wrap;html=1;fillColor=#ffffff;arcSize=50;" vertex="1" parent="1">
          <mxGeometry x="260" y="540" width="120" height="20" as="geometry" />
        </mxCell>
        <mxCell id="17chRcjesr2Qa1bXPgZT-17" value="" style="endArrow=classic;startArrow=classic;html=1;exitX=0.5;exitY=0;exitDx=0;exitDy=0;entryX=0.5;entryY=1;entryDx=0;entryDy=0;" edge="1" parent="1" source="17chRcjesr2Qa1bXPgZT-15" target="17chRcjesr2Qa1bXPgZT-13">
          <mxGeometry width="50" height="50" relative="1" as="geometry">
            <mxPoint x="400" y="520" as="sourcePoint" />
            <mxPoint x="450" y="470" as="targetPoint" />
          </mxGeometry>
        </mxCell>
        <mxCell id="17chRcjesr2Qa1bXPgZT-18" value="ens4" style="rounded=0;whiteSpace=wrap;html=1;fillColor=#ffffff;" vertex="1" parent="1">
          <mxGeometry x="260" y="700" width="120" height="60" as="geometry" />
        </mxCell>
        <mxCell id="17chRcjesr2Qa1bXPgZT-20" value="veth in pair" style="text;html=1;strokeColor=none;fillColor=none;align=center;verticalAlign=middle;whiteSpace=wrap;rounded=0;" vertex="1" parent="1">
          <mxGeometry x="210" y="315" width="90" height="20" as="geometry" />
        </mxCell>
        <mxCell id="17chRcjesr2Qa1bXPgZT-21" value="" style="rounded=1;whiteSpace=wrap;html=1;" vertex="1" parent="1">
          <mxGeometry x="680" y="30" width="720" height="730" as="geometry" />
        </mxCell>
        <mxCell id="17chRcjesr2Qa1bXPgZT-22" value="ens4" style="rounded=0;whiteSpace=wrap;html=1;fillColor=#ffffff;" vertex="1" parent="1">
          <mxGeometry x="810" y="700" width="120" height="60" as="geometry" />
        </mxCell>
        <mxCell id="17chRcjesr2Qa1bXPgZT-23" value="br-tun" style="rounded=1;whiteSpace=wrap;html=1;fillColor=none;arcSize=32;" vertex="1" parent="1">
          <mxGeometry x="700" y="540" width="360" height="130" as="geometry" />
        </mxCell>
        <mxCell id="17chRcjesr2Qa1bXPgZT-24" value="patch-int" style="rounded=1;whiteSpace=wrap;html=1;fillColor=#ffffff;arcSize=50;" vertex="1" parent="1">
          <mxGeometry x="820" y="540" width="120" height="20" as="geometry" />
        </mxCell>
        <mxCell id="17chRcjesr2Qa1bXPgZT-27" value="" style="endArrow=classic;startArrow=classic;html=1;exitX=0.5;exitY=0;exitDx=0;exitDy=0;entryX=0.276;entryY=0.992;entryDx=0;entryDy=0;entryPerimeter=0;" edge="1" parent="1" target="17chRcjesr2Qa1bXPgZT-29">
          <mxGeometry width="50" height="50" relative="1" as="geometry">
            <mxPoint x="879.5" y="540" as="sourcePoint" />
            <mxPoint x="879.5" y="490" as="targetPoint" />
          </mxGeometry>
        </mxCell>
        <mxCell id="17chRcjesr2Qa1bXPgZT-28" value="patch-tun" style="rounded=1;whiteSpace=wrap;html=1;fillColor=#ffffff;arcSize=50;" vertex="1" parent="1">
          <mxGeometry x="820" y="450" width="120" height="20" as="geometry" />
        </mxCell>
        <mxCell id="17chRcjesr2Qa1bXPgZT-29" value="&lt;font style=&quot;font-size: 18px&quot;&gt;br-int&lt;/font&gt;" style="rounded=1;whiteSpace=wrap;html=1;fillColor=none;arcSize=32;" vertex="1" parent="1">
          <mxGeometry x="680" y="340" width="720" height="130" as="geometry" />
        </mxCell>
        <mxCell id="17chRcjesr2Qa1bXPgZT-31" value="br-ex" style="rounded=1;whiteSpace=wrap;html=1;fillColor=none;arcSize=32;" vertex="1" parent="1">
          <mxGeometry x="1100" y="540" width="270" height="130" as="geometry" />
        </mxCell>
        <mxCell id="17chRcjesr2Qa1bXPgZT-32" value="patch-int" style="rounded=1;whiteSpace=wrap;html=1;fillColor=#ffffff;arcSize=50;" vertex="1" parent="1">
          <mxGeometry x="1175" y="540" width="120" height="20" as="geometry" />
        </mxCell>
        <mxCell id="17chRcjesr2Qa1bXPgZT-33" value="int-br-ex" style="rounded=1;whiteSpace=wrap;html=1;fillColor=#ffffff;arcSize=50;" vertex="1" parent="1">
          <mxGeometry x="1175" y="450" width="120" height="20" as="geometry" />
        </mxCell>
        <mxCell id="17chRcjesr2Qa1bXPgZT-34" value="" style="endArrow=classic;startArrow=classic;html=1;exitX=0.5;exitY=0;exitDx=0;exitDy=0;entryX=0.276;entryY=0.992;entryDx=0;entryDy=0;entryPerimeter=0;" edge="1" parent="1">
          <mxGeometry width="50" height="50" relative="1" as="geometry">
            <mxPoint x="1235.28" y="540" as="sourcePoint" />
            <mxPoint x="1234.5000000000002" y="468.96000000000004" as="targetPoint" />
          </mxGeometry>
        </mxCell>
        <mxCell id="17chRcjesr2Qa1bXPgZT-35" value="ens3" style="rounded=0;whiteSpace=wrap;html=1;fillColor=#ffffff;" vertex="1" parent="1">
          <mxGeometry x="1190" y="700" width="120" height="60" as="geometry" />
        </mxCell>
        <mxCell id="17chRcjesr2Qa1bXPgZT-36" value="&lt;font style=&quot;font-size: 26px&quot;&gt;Internet&lt;/font&gt;" style="ellipse;shape=cloud;whiteSpace=wrap;html=1;fillColor=#ffffff;" vertex="1" parent="1">
          <mxGeometry x="1440" y="220" width="590" height="340" as="geometry" />
        </mxCell>
        <mxCell id="17chRcjesr2Qa1bXPgZT-37" value="" style="endArrow=classic;html=1;exitX=0.5;exitY=1;exitDx=0;exitDy=0;entryX=0.55;entryY=0.95;entryDx=0;entryDy=0;entryPerimeter=0;" edge="1" parent="1" source="17chRcjesr2Qa1bXPgZT-35" target="17chRcjesr2Qa1bXPgZT-36">
          <mxGeometry width="50" height="50" relative="1" as="geometry">
            <mxPoint x="1260" y="640" as="sourcePoint" />
            <mxPoint x="1765" y="790" as="targetPoint" />
            <Array as="points">
              <mxPoint x="1250" y="960" />
              <mxPoint x="1760" y="960" />
              <mxPoint x="1760" y="590" />
              <mxPoint x="1760" y="560" />
              <mxPoint x="1760" y="550" />
              <mxPoint x="1765" y="550" />
            </Array>
          </mxGeometry>
        </mxCell>
        <mxCell id="17chRcjesr2Qa1bXPgZT-38" value="&lt;font style=&quot;font-size: 17px&quot;&gt;qdhcp namespace&lt;/font&gt;" style="rounded=1;whiteSpace=wrap;html=1;fillColor=#ffffff;" vertex="1" parent="1">
          <mxGeometry x="700" y="170" width="270" height="100" as="geometry" />
        </mxCell>
        <mxCell id="17chRcjesr2Qa1bXPgZT-39" value="&lt;font style=&quot;font-size: 18px&quot;&gt;qrouter namespace&lt;br&gt;&lt;/font&gt;" style="rounded=1;whiteSpace=wrap;html=1;fillColor=#ffffff;" vertex="1" parent="1">
          <mxGeometry x="1060" y="170" width="325" height="100" as="geometry" />
        </mxCell>
        <mxCell id="17chRcjesr2Qa1bXPgZT-40" value="qr" style="rounded=0;whiteSpace=wrap;html=1;fillColor=#ffffff;" vertex="1" parent="1">
          <mxGeometry x="1090" y="250" width="60" height="20" as="geometry" />
        </mxCell>
        <mxCell id="17chRcjesr2Qa1bXPgZT-41" value="qg" style="rounded=0;whiteSpace=wrap;html=1;fillColor=#ffffff;" vertex="1" parent="1">
          <mxGeometry x="1245" y="250" width="60" height="20" as="geometry" />
        </mxCell>
        <mxCell id="17chRcjesr2Qa1bXPgZT-43" value="tap" style="rounded=0;whiteSpace=wrap;html=1;fillColor=#ffffff;" vertex="1" parent="1">
          <mxGeometry x="805" y="250" width="60" height="20" as="geometry" />
        </mxCell>
        <mxCell id="17chRcjesr2Qa1bXPgZT-44" value="dnsmaq" style="shape=process;whiteSpace=wrap;html=1;backgroundOutline=1;fillColor=#ffffff;" vertex="1" parent="1">
          <mxGeometry x="775" y="90" width="120" height="30" as="geometry" />
        </mxCell>
        <mxCell id="17chRcjesr2Qa1bXPgZT-45" value="IPTABLES" style="shape=process;whiteSpace=wrap;html=1;backgroundOutline=1;fillColor=#ffffff;" vertex="1" parent="1">
          <mxGeometry x="1070" y="90" width="120" height="30" as="geometry" />
        </mxCell>
        <mxCell id="17chRcjesr2Qa1bXPgZT-46" value="Routing" style="shape=process;whiteSpace=wrap;html=1;backgroundOutline=1;fillColor=#ffffff;" vertex="1" parent="1">
          <mxGeometry x="1230" y="90" width="120" height="30" as="geometry" />
        </mxCell>
        <mxCell id="17chRcjesr2Qa1bXPgZT-49" value="" style="endArrow=classic;html=1;exitX=0.5;exitY=1;exitDx=0;exitDy=0;entryX=0.5;entryY=0;entryDx=0;entryDy=0;" edge="1" parent="1" source="17chRcjesr2Qa1bXPgZT-44" target="17chRcjesr2Qa1bXPgZT-43">
          <mxGeometry width="50" height="50" relative="1" as="geometry">
            <mxPoint x="990" y="490" as="sourcePoint" />
            <mxPoint x="1040" y="440" as="targetPoint" />
          </mxGeometry>
        </mxCell>
        <mxCell id="17chRcjesr2Qa1bXPgZT-51" value="" style="endArrow=classic;startArrow=classic;html=1;exitX=0.5;exitY=0;exitDx=0;exitDy=0;entryX=0.5;entryY=1;entryDx=0;entryDy=0;" edge="1" parent="1" source="17chRcjesr2Qa1bXPgZT-18" target="17chRcjesr2Qa1bXPgZT-15">
          <mxGeometry width="50" height="50" relative="1" as="geometry">
            <mxPoint x="530" y="530" as="sourcePoint" />
            <mxPoint x="580" y="480" as="targetPoint" />
          </mxGeometry>
        </mxCell>
        <mxCell id="17chRcjesr2Qa1bXPgZT-52" value="" style="endArrow=classic;startArrow=classic;html=1;exitX=0.5;exitY=1;exitDx=0;exitDy=0;entryX=0.5;entryY=1;entryDx=0;entryDy=0;" edge="1" parent="1" source="17chRcjesr2Qa1bXPgZT-18" target="17chRcjesr2Qa1bXPgZT-22">
          <mxGeometry width="50" height="50" relative="1" as="geometry">
            <mxPoint x="530" y="650" as="sourcePoint" />
            <mxPoint x="580" y="600" as="targetPoint" />
            <Array as="points">
              <mxPoint x="320" y="1040" />
              <mxPoint x="870" y="1040" />
            </Array>
          </mxGeometry>
        </mxCell>
        <mxCell id="17chRcjesr2Qa1bXPgZT-53" value="" style="endArrow=classic;startArrow=classic;html=1;exitX=0.5;exitY=0;exitDx=0;exitDy=0;entryX=0.471;entryY=1.021;entryDx=0;entryDy=0;entryPerimeter=0;" edge="1" parent="1" source="17chRcjesr2Qa1bXPgZT-22" target="17chRcjesr2Qa1bXPgZT-23">
          <mxGeometry width="50" height="50" relative="1" as="geometry">
            <mxPoint x="530" y="670" as="sourcePoint" />
            <mxPoint x="580" y="620" as="targetPoint" />
          </mxGeometry>
        </mxCell>
        <mxCell id="17chRcjesr2Qa1bXPgZT-54" value="" style="endArrow=classic;startArrow=classic;html=1;exitX=0.5;exitY=0;exitDx=0;exitDy=0;entryX=0.554;entryY=1.003;entryDx=0;entryDy=0;entryPerimeter=0;" edge="1" parent="1" source="17chRcjesr2Qa1bXPgZT-35" target="17chRcjesr2Qa1bXPgZT-31">
          <mxGeometry width="50" height="50" relative="1" as="geometry">
            <mxPoint x="530" y="670" as="sourcePoint" />
            <mxPoint x="580" y="620" as="targetPoint" />
          </mxGeometry>
        </mxCell>
        <mxCell id="17chRcjesr2Qa1bXPgZT-57" value="" style="endArrow=classic;startArrow=classic;html=1;entryX=0.5;entryY=0;entryDx=0;entryDy=0;exitX=0.5;exitY=1;exitDx=0;exitDy=0;" edge="1" parent="1" source="17chRcjesr2Qa1bXPgZT-43">
          <mxGeometry width="50" height="50" relative="1" as="geometry">
            <mxPoint x="530" y="610" as="sourcePoint" />
            <mxPoint x="834.9999999999995" y="340" as="targetPoint" />
          </mxGeometry>
        </mxCell>
        <mxCell id="17chRcjesr2Qa1bXPgZT-60" value="" style="endArrow=classic;startArrow=classic;html=1;exitX=0.5;exitY=0;exitDx=0;exitDy=0;entryX=0.5;entryY=1;entryDx=0;entryDy=0;" edge="1" parent="1" target="17chRcjesr2Qa1bXPgZT-40">
          <mxGeometry width="50" height="50" relative="1" as="geometry">
            <mxPoint x="1120" y="340" as="sourcePoint" />
            <mxPoint x="1010" y="560" as="targetPoint" />
          </mxGeometry>
        </mxCell>
        <mxCell id="17chRcjesr2Qa1bXPgZT-61" value="" style="endArrow=classic;startArrow=classic;html=1;exitX=0.5;exitY=0;exitDx=0;exitDy=0;entryX=0.5;entryY=1;entryDx=0;entryDy=0;" edge="1" parent="1">
          <mxGeometry width="50" height="50" relative="1" as="geometry">
            <mxPoint x="1279.41" y="340" as="sourcePoint" />
            <mxPoint x="1279.41" y="270" as="targetPoint" />
          </mxGeometry>
        </mxCell>
      </root>
    </mxGraphModel>
  </diagram>
</mxfile>
